<svg width="32" height="32" viewBox="0 0 21 22" fill="#000" xmlns="http://www.w3.org/2000/svg">
<path d="M15.56 16.968C15.048 16.968 14.624 16.896 14.288 16.752C13.952 16.608 13.672 16.416 13.448 16.176C13.096 16.368 12.672 16.536 12.176 16.68C11.68 16.808 11.184 16.872 10.688 16.872C9.92 16.872 9.216 16.752 8.576 16.512C7.952 16.272 7.408 15.92 6.944 15.456C6.48 14.976 6.12 14.392 5.864 13.704C5.608 13.016 5.48 12.216 5.48 11.304C5.48 10.536 5.6 9.816 5.84 9.144C6.08 8.456 6.432 7.864 6.896 7.368C7.376 6.856 7.952 6.456 8.624 6.168C9.312 5.88 10.088 5.736 10.952 5.736C11.768 5.736 12.512 5.8 13.184 5.928C13.872 6.056 14.4 6.184 14.768 6.312V13.656C14.768 14.168 14.856 14.528 15.032 14.736C15.208 14.944 15.44 15.048 15.728 15.048C16.144 15.048 16.504 14.904 16.808 14.616C17.128 14.328 17.384 13.952 17.576 13.488C17.784 13.024 17.936 12.504 18.032 11.928C18.128 11.336 18.176 10.736 18.176 10.128C18.176 9.12 18 8.176 17.648 7.296C17.296 6.4 16.792 5.616 16.136 4.944C15.48 4.272 14.68 3.744 13.736 3.36C12.808 2.976 11.76 2.784 10.592 2.784C9.424 2.784 8.352 2.984 7.376 3.384C6.4 3.768 5.56 4.328 4.856 5.064C4.152 5.784 3.6 6.672 3.2 7.728C2.816 8.784 2.624 9.984 2.624 11.328C2.624 12.736 2.832 13.976 3.248 15.048C3.664 16.104 4.24 16.992 4.976 17.712C5.728 18.416 6.608 18.944 7.616 19.296C8.64 19.664 9.76 19.848 10.976 19.848C11.92 19.848 12.696 19.792 13.304 19.68C13.928 19.568 14.328 19.48 14.504 19.416L14.744 21.192C14.472 21.288 13.976 21.392 13.256 21.504C12.552 21.616 11.792 21.672 10.976 21.672C9.552 21.672 8.208 21.464 6.944 21.048C5.68 20.648 4.576 20.024 3.632 19.176C2.688 18.344 1.936 17.28 1.376 15.984C0.832 14.672 0.56 13.12 0.56 11.328C0.56 9.6 0.832 8.088 1.376 6.792C1.92 5.496 2.648 4.424 3.56 3.576C4.488 2.712 5.552 2.064 6.752 1.632C7.968 1.2 9.248 0.983999 10.592 0.983999C11.904 0.983999 13.144 1.2 14.312 1.632C15.48 2.048 16.504 2.664 17.384 3.48C18.264 4.28 18.96 5.256 19.472 6.408C19.984 7.544 20.24 8.832 20.24 10.272C20.24 11.36 20.112 12.32 19.856 13.152C19.616 13.984 19.288 14.688 18.872 15.264C18.456 15.824 17.96 16.248 17.384 16.536C16.808 16.824 16.2 16.968 15.56 16.968ZM10.76 15.024C11.096 15.024 11.432 14.992 11.768 14.928C12.12 14.848 12.432 14.736 12.704 14.592C12.656 14.384 12.624 14.176 12.608 13.968C12.592 13.76 12.584 13.56 12.584 13.368V7.728C12.488 7.696 12.304 7.664 12.032 7.632C11.76 7.6 11.456 7.584 11.12 7.584C9.984 7.584 9.136 7.936 8.576 8.64C8.016 9.344 7.736 10.232 7.736 11.304C7.736 12.44 8.008 13.344 8.552 14.016C9.096 14.688 9.832 15.024 10.76 15.024Z" fill="black"/>
</svg>
